<svg id="Capa_1" data-name="Capa 1" xmlns="http://www.w3.org/2000/svg" viewBox="0 0 1621.45 576">
  <path d="M532,137.17l-62.13,154,26.12-154H428L384.75,464.48h73.39L601.75,137.17Zm99,189.09h59l17.11-58.08h-59l21.16-72h60.33l17.55-59H618.41L522.06,464.48H648.57l22.51-62.13H608.5ZM246.62,531.51a204.41,204.41,0,0,1-97.75-24.75l-17.36,35.88a243.32,243.32,0,0,0,115.11,28.78c78.59,0,148.57-37.19,193.73-95.1H386.7A205.12,205.12,0,0,1,246.62,531.51Zm43.6-124.07v33.82l83.2-63.88L292.9,301.69v32.74H207l85.89-204v150.3l69.55,65.79L364.18,0H288.07L10,574.19,102.34,576,177,407.44ZM66.7,425.91A210.44,210.44,0,0,1,39.46,322c0-105.34,76.86-192.52,177-207.31l20.3-41.91C105.11,78,0,187.58,0,322A250.24,250.24,0,0,0,45.71,466.67Zm295.61,38.57V402.64l-72.17,61.84ZM1388.7,309.15c16.66,0,26.11-9.9,28.81-19.36l32.87-111.2c6.3-21.61-3.15-41.42-32.42-41.42H1294.15l-96.34,327.31h68l41-139.57h22.51c8.1,0,9,5.85,7.2,11.26l-37.81,128.31h68l35.11-119.31C1409,321.76,1399.05,311,1388.7,309.15Zm-10.81-105.8-18,60.78c-3.15,9.91-9,12.61-15.75,12.61h-23.41l25.66-86.89h21.16C1377.89,189.85,1380.59,194.8,1377.89,203.35ZM866,137.17,828.65,263.68,826.4,137.17H768.32L672,464.48h63.94l39.16-130.57,5.86,130.57H835.4l96.35-327.31Zm678.44,59h59.43l17.56-59h-104.9c-16.21,0-32.41,4.5-40.07,27.47l-37.37,127c-6.75,23.87,0,39.62,28.37,39.62h36c4.06,0,4.06,1.8,3.16,4.51l-15.76,55.37c-2.7,8.11-4.5,11.26-17.11,11.26h-56.73l-18.45,62.13h111.2c14,0,28.81-6.76,32.41-19.81l37.37-127c9.45-32-5.85-45.47-30.16-45.47H1513l19.36-66.64C1534.56,198.4,1539.51,196.15,1544.46,196.15Zm-538.88,72-17.11,58.08h13.95L977.66,410h-23c-9,0-13.05-3.6-10.35-13.06l56.27-190.89c2.26-8.1,5.86-9.9,13.06-9.9h66.18l17.56-59H988.92c-21.61,0-36.47,6.31-43.67,30.62L875.92,403.7c-12.61,43.22,13.05,60.78,43.67,60.78h41.87l-7.21,25.66,75.64-38.27,54-183.69Zm151.26,58.08h59l17.11-58.08h-59l21.16-72h60.33l17.56-59H1144.24l-96.35,327.31H1174.4l22.51-62.13h-62.58Z"/>
</svg>
